{
  "source": "C:\\Users\\Peter\\Desktop\\stuff\\MIUN\\quantitative_research\\video_compression\\videos\\BVI-HD\\BVI-HD_CDVL_videos\\ORIG\\Toys_1920x1080_30fps.mp4",
  "output": "C:\\Users\\Peter\\Desktop\\stuff\\MIUN\\quantitative_research\\video_compression\\compressed_videos\\BVI-HD\\h264\\8\\Toys_1920x1080_30fps_h264.mp4",
  "codec": "h264",
  "ok": "Input #0, mov,mp4,m4a,3gp,3g2,mj2, from 'C:\\Users\\Peter\\Desktop\\stuff\\MIUN\\quantitative_research\\video_compression\\videos\\BVI-HD\\BVI-HD_CDVL_videos\\ORIG\\Toys_1920x1080_30fps.mp4':\n  Metadata:\n    major_brand     : isom\n    minor_version   : 512\n    compatible_brands: isomiso2avc1mp41\n    encoder         : Lavf54.28.101\n  Duration: 00:00:05.00, start: 0.000000, bitrate: 270887 kb/s\n  Stream #0:0[0x1](und): Video: h264 (High 4:4:4 Predictive) (avc1 / 0x31637661), yuv420p(progressive), 1920x1080, 270883 kb/s, 30 fps, 30 tbr, 30 tbn (default)\n    Metadata:\n      handler_name    : VideoHandler\n      vendor_id       : [0][0][0][0]\n[out#0/mp4 @ 0000021a18319a40] Codec AVOption b:a (set bitrate (in bits/s)) has not been used for any stream. The most likely reason is either wrong type (e.g. a video option with no video streams) or that it is a private option of some decoder which was not actually used for any stream.\nStream mapping:\n  Stream #0:0 -> #0:0 (h264 (native) -> h264 (libx264))\nPress [q] to stop, [?] for help\n[libx264 @ 0000021a188e2c00] using cpu capabilities: MMX2 SSE2Fast SSSE3 SSE4.2 AVX FMA3 BMI2 AVX2\n[libx264 @ 0000021a188e2c00] profile High, level 5.0, 4:2:0, 8-bit\n[libx264 @ 0000021a188e2c00] 264 - core 165 r3222 b35605a - H.264/MPEG-4 AVC codec - Copyleft 2003-2025 - http://www.videolan.org/x264.html - options: cabac=1 ref=5 deblock=1:0:0 analyse=0x3:0x113 me=hex subme=8 psy=1 psy_rd=1.00:0.00 mixed_ref=1 me_range=16 chroma_me=1 trellis=2 8x8dct=1 cqm=0 deadzone=21,11 fast_pskip=1 chroma_qp_offset=-2 threads=18 lookahead_threads=3 sliced_threads=0 nr=0 decimate=1 interlaced=0 bluray_compat=0 constrained_intra=0 bframes=3 b_pyramid=2 b_adapt=1 b_bias=0 direct=3 weightb=1 open_gop=0 weightp=2 keyint=250 keyint_min=25 scenecut=40 intra_refresh=0 rc_lookahead=50 rc=cbr mbtree=1 bitrate=8000 ratetol=1.0 qcomp=0.60 qpmin=0 qpmax=69 qpstep=4 vbv_maxrate=8000 vbv_bufsize=8000 nal_hrd=none filler=0 ip_ratio=1.40 aq=1:1.00\nOutput #0, mp4, to 'C:\\Users\\Peter\\Desktop\\stuff\\MIUN\\quantitative_research\\video_compression\\compressed_videos\\BVI-HD\\h264\\8\\Toys_1920x1080_30fps_h264.mp4':\n  Metadata:\n    major_brand     : isom\n    minor_version   : 512\n    compatible_brands: isomiso2avc1mp41\n    encoder         : Lavf62.3.100\n  Stream #0:0(und): Video: h264 (avc1 / 0x31637661), yuv420p(tv, progressive), 1920x1080, q=2-31, 8000 kb/s, 30 fps, 15360 tbn (default)\n    Metadata:\n      encoder         : Lavc62.11.100 libx264\n      handler_name    : VideoHandler\n      vendor_id       : [0][0][0][0]\n    Side data:\n      cpb: bitrate max/min/avg: 8000000/0/8000000 buffer size: 8000000 vbv_delay: N/A\nframe=    0 fps=0.0 q=0.0 size=       0KiB time=N/A bitrate=N/A speed=N/A elapsed=0:00:00.51    \nframe=    0 fps=0.0 q=0.0 size=       0KiB time=N/A bitrate=N/A speed=N/A elapsed=0:00:01.08    \nframe=    0 fps=0.0 q=0.0 size=       0KiB time=N/A bitrate=N/A speed=N/A elapsed=0:00:01.67    \nframe=   13 fps=5.8 q=29.0 size=     256KiB time=00:00:00.30 bitrate=6991.8kbits/s speed=0.133x elapsed=0:00:02.26    \nframe=   25 fps=8.8 q=29.0 size=     512KiB time=00:00:00.63 bitrate=6623.2kbits/s speed=0.224x elapsed=0:00:02.82    \nframe=   33 fps=9.6 q=29.0 size=     768KiB time=00:00:01.03 bitrate=6088.9kbits/s speed=0.302x elapsed=0:00:03.42    \nframe=   49 fps= 12 q=29.0 size=    1024KiB time=00:00:01.43 bitrate=5852.8kbits/s speed=0.357x elapsed=0:00:04.01    \nframe=   64 fps= 14 q=29.0 size=    1536KiB time=00:00:02.06 bitrate=6088.7kbits/s speed=0.45x elapsed=0:00:04.59    \nframe=   80 fps= 15 q=29.0 size=    2048KiB time=00:00:02.56 bitrate=6536.7kbits/s speed=0.495x elapsed=0:00:05.18    \nframe=   88 fps= 15 q=29.0 size=    2048KiB time=00:00:02.73 bitrate=6138.1kbits/s speed=0.475x elapsed=0:00:05.76    \nframe=  104 fps= 16 q=29.0 size=    2560KiB time=00:00:03.40 bitrate=6168.2kbits/s speed=0.538x elapsed=0:00:06.31    \nframe=  108 fps= 16 q=28.0 size=    2816KiB time=00:00:03.53 bitrate=6529.0kbits/s speed=0.514x elapsed=0:00:06.87    \nframe=  124 fps= 17 q=27.0 size=    3072KiB time=00:00:04.06 bitrate=6188.4kbits/s speed=0.55x elapsed=0:00:07.39    \nframe=  140 fps= 18 q=-1.0 size=    3584KiB time=00:00:04.60 bitrate=6382.7kbits/s speed=0.581x elapsed=0:00:07.91    \nframe=  144 fps= 17 q=-1.0 size=    3840KiB time=00:00:04.73 bitrate=6646.0kbits/s speed=0.56x elapsed=0:00:08.45    \n[mp4 @ 0000021a18321440] Starting second pass: moving the moov atom to the beginning of the file\n[out#0/mp4 @ 0000021a18319a40] video:4057KiB audio:0KiB subtitle:0KiB other streams:0KiB global headers:0KiB muxing overhead: 0.065348%\nframe=  150 fps= 17 q=-1.0 Lsize=    4060KiB time=00:00:04.93 bitrate=6741.7kbits/s speed=0.571x elapsed=0:00:08.63    \n[libx264 @ 0000021a188e2c00] frame I:1     Avg QP:25.39  size:189531\n[libx264 @ 0000021a188e2c00] frame P:38    Avg QP:26.85  size: 72177\n[libx264 @ 0000021a188e2c00] frame B:111   Avg QP:31.19  size: 11006\n[libx264 @ 0000021a188e2c00] consecutive B-frames:  0.7%  1.3%  2.0% 96.0%\n[libx264 @ 0000021a188e2c00] mb I  I16..4:  8.7% 83.8%  7.5%\n[libx264 @ 0000021a188e2c00] mb P  I16..4:  1.2%  7.0%  0.8%  P16..4: 44.8% 26.1% 10.7%  0.0%  0.0%    skip: 9.4%\n[libx264 @ 0000021a188e2c00] mb B  I16..4:  0.0%  0.1%  0.0%  B16..8: 47.7%  5.0%  1.1%  direct: 1.7%  skip:44.4%  L0:32.7% L1:52.1% BI:15.3%\n[libx264 @ 0000021a188e2c00] 8x8 transform intra:78.7% inter:68.8%\n[libx264 @ 0000021a188e2c00] direct mvs  spatial:91.0% temporal:9.0%\n[libx264 @ 0000021a188e2c00] coded y,uvDC,uvAC intra: 74.4% 58.9% 20.6% inter: 14.8% 8.4% 0.2%\n[libx264 @ 0000021a188e2c00] i16 v,h,dc,p: 32% 13%  7% 48%\n[libx264 @ 0000021a188e2c00] i8 v,h,dc,ddl,ddr,vr,hd,vl,hu: 11%  8%  5%  8% 15% 11% 17% 10% 14%\n[libx264 @ 0000021a188e2c00] i4 v,h,dc,ddl,ddr,vr,hd,vl,hu: 11%  5%  3%  7% 18% 14% 19% 10% 13%\n[libx264 @ 0000021a188e2c00] i8c dc,h,v,p: 50% 25% 15% 11%\n[libx264 @ 0000021a188e2c00] Weighted P-Frames: Y:7.9% UV:0.0%\n[libx264 @ 0000021a188e2c00] ref P L0: 75.5% 14.2%  8.0%  1.2%  0.9%  0.1%\n[libx264 @ 0000021a188e2c00] ref B L0: 98.0%  1.7%  0.3%  0.1%\n[libx264 @ 0000021a188e2c00] ref B L1: 99.6%  0.4%\n[libx264 @ 0000021a188e2c00] kb/s:6646.22\n",
  "seconds": 9.01829195022583,
  "probe_out": {}
}